<?xml version="1.0" encoding="UTF-8"?>
<svg width="1027px" height="860px" viewBox="0 0 1027 860" version="1.1" xmlns="http://www.w3.org/2000/svg" xmlns:xlink="http://www.w3.org/1999/xlink">
    <!-- Generator: Sketch 47.1 (45422) - http://www.bohemiancoding.com/sketch -->
    <title>Group</title>
    <desc>Created with Sketch.</desc>
    <defs></defs>
    <g id="Page-1" stroke="none" stroke-width="1" fill="none" fill-rule="evenodd">
        <g id="Group">
            <path d="M44.4328483,691.940744 C66.9151733,689.976413 87.527815,688.996169 106.270773,689.000011 C126.598783,689.004178 150.938558,690.159777 179.290097,692.466808 C197.398833,693.940356 208.038832,709.343949 203.733824,727.854141 L201.850769,735.95069 C197.565831,754.374587 179.898775,769.736542 161.174861,771.319428 C127.22177,774.189761 104.371328,775.624927 92.623533,775.624927 C80.8757382,775.624927 58.6928633,774.189761 26.0749083,771.319428 C8.08727338,769.736542 -2.43416907,754.374587 1.85076893,735.95069 L3.86261036,727.300399 C8.13827139,708.916393 25.7417054,693.573831 44.4328483,691.940744 Z" id="Rectangle-2-Copy" fill="#3F3F3F"></path>
            <path d="M910.083415,635.943044 C932.832959,628.322658 958.345396,620.835087 986.620725,613.480332 C1005.13168,608.665409 1021.2752,617.663406 1024.14381,634.39476 L1025.91444,644.722058 C1028.8415,661.794319 1017.00314,681.306545 998.650808,689.658536 C973.2762,701.206306 951.113061,711.308071 932.16139,719.963829 C911.038524,729.611233 883.09563,737.83591 848.332706,744.63786 C831.604842,747.910949 817.325897,739.891259 813.706927,725.190485 L810.614023,712.626666 C806.385193,695.44855 817.974487,674.84142 836.877819,665.926545 C863.52755,653.358442 887.929416,643.363942 910.083415,635.943044 Z" id="Rectangle-2-Copy-2" fill="#3F3F3F"></path>
            <path d="M426.992251,630 C449.359784,630 471.70941,611.867532 476.911539,589.5 C482.113668,567.132468 468.198359,549 445.830827,549 C423.463294,549 401.113668,567.132468 395.911539,589.5 C390.70941,611.867532 404.624719,630 426.992251,630 Z" id="Oval-4-Copy" fill="#3F3F3F"></path>
            <path d="M626.992251,630 C649.359784,630 671.70941,611.867532 676.911539,589.5 C682.113668,567.132468 668.198359,549 645.830827,549 C623.463294,549 601.113668,567.132468 595.911539,589.5 C590.70941,611.867532 604.624719,630 626.992251,630 Z" id="Oval-4-Copy-2" fill="#3F3F3F"></path>
            <path d="M509.571523,723.497352 C531.061679,716.185519 546.047869,710.069382 554.530094,705.14894 C561.286367,701.229703 574.751914,691.78341 594.926734,676.810061 C600.392512,672.753473 602.387517,665.798897 599.382704,661.276582 C598.059383,659.284953 595.90412,658.012715 593.320386,657.698035 C574.940404,655.459483 551.575255,654.235263 523.224937,654.025374 C493.423291,653.804739 468.534958,655.022987 448.559939,657.680115 C442.349097,658.506297 436.849208,664.055164 436.275593,670.073856 C436.047674,672.465306 436.637831,674.682378 437.955077,676.383263 C446.429647,687.325994 455.973219,696.914553 466.585793,705.14894 C480.534862,715.972143 492.983869,722.271564 503.932815,724.047202 C505.719209,724.336912 507.660299,724.147628 509.571523,723.497352 Z" id="Triangle-Copy" fill="#F19999"></path>
            <path d="M199.702774,219.635434 C156.901941,217.710553 113.424846,257.566965 102.593964,308.657221 C91.7630819,359.747478 117.679847,402.724738 160.48068,404.649619 C164.65297,404.837259 168.831686,404.627866 172.985961,404.049738 C188.031874,351.843819 216.829877,302.223856 254.52853,261.12622 C245.428536,237.086792 225.673984,220.803437 199.702774,219.635434 Z" id="Combined-Shape-Copy" fill="#3F3F3F"></path>
            <path d="M504.958921,102.057344 C519.990047,39.617497 592.154914,-5.68114438 666.143661,0.879996541 C740.132409,7.44113746 787.927005,63.3774901 772.895879,125.817337 C766.35317,152.995988 748.985538,176.926958 725.354412,194.746989 C673.718589,148.359276 593.499462,123.655032 502.489355,132.292449 C501.706395,122.520823 502.474452,112.377922 504.958921,102.057344 Z" id="Combined-Shape-Copy-2" fill="#3F3F3F"></path>
            <path d="M819.789477,346.763003 C810.938165,179.620229 647.315802,81.7738707 454.328702,128.217045 C261.341602,174.66022 146.577696,313.640883 143.311325,482.633666 C141.839609,558.776055 192.323359,615.107145 205.975274,642.009825 C212.204279,654.2848 218.795704,665.402751 225.801223,675.415606 C233.972192,660.790466 242.803122,646.621572 252.231608,632.968733 C235.220327,615.022643 219.177882,595.104107 203.282617,574.352779 C187.388097,553.602425 175.355609,515.375781 173.800158,486.003595 C165.772025,334.405234 280.747418,197.66069 455.786562,155.536768 C630.825706,113.412846 779.231057,202.159414 787.25919,353.757775 C789.557611,397.159753 780.10079,441.007998 761.323763,482.478018 C769.68783,488.133526 777.741824,494.228719 785.46783,500.73884 C809.953225,451.507221 822.547494,398.843701 819.789477,346.763003 Z" id="Combined-Shape-Copy-3" fill="#3F3F3F"></path>
            <path d="M902.221706,859.199054 L750.596664,859.199054 C754.374325,848.662457 757.552395,837.934726 760.083114,827.053423 C771.597769,777.543996 768.23209,731.213815 752.838934,691.601157 C768.802546,672.70957 780.317129,651.282128 785.598741,628.57284 C803.315161,552.39776 744.191119,490.645656 653.541498,490.645656 C619.054531,490.645656 584.973056,499.583438 555.004527,514.852876 C532.138573,499.583437 502.214509,490.645656 467.727545,490.645656 C377.077923,490.645656 289.22989,552.39776 271.51347,628.57284 C265.764285,653.292545 268.107002,676.493397 276.99305,696.557989 C245.289309,735.057448 221.937346,779.594776 210.899651,827.053423 C208.368932,837.934726 206.556997,848.662457 205.43356,859.199054 L57.1862801,859.199054 C85.2409057,760.801121 124.511254,686.590919 174.965293,618.599527 C196.285507,589.868605 213.920102,568.319811 243.024004,541.709894 C260.78729,522.955285 279.04714,505.890314 308.004526,502.456566 C326.804629,500.227262 338.516687,494.563815 349.045734,490.645656 C377.518066,480.050286 390.277461,462.944966 396.763123,439.850987 C401.206035,424.030779 393.476409,393.571344 393.043272,382.805803 C392.797712,376.702442 439.419826,376.100747 442.677944,382.805803 C437.555165,426.090655 459.776398,459.913202 499.384348,458.965513 C556.417596,457.600894 570.504837,440.847445 607.74708,409.838588 C629.177509,391.995058 652.545213,369.040724 710.295885,382.805803 C732.625559,389.928129 750.223956,399.116286 764.982374,409.838588 C795.271648,431.844387 813.598654,460.312154 836.312973,490.645656 C898.915408,574.247157 932.509922,690.96487 902.221706,859.199054 Z" id="Combined-Shape-Copy-4" fill="#3F3F3F"></path>
            <path d="M511.027298,341.241508 C571.033296,372.007396 641.592046,361.077897 668.624678,316.829789 C695.65731,272.58168 668.927116,211.77082 608.921119,181.004932 C548.915121,150.239043 478.356371,161.168542 451.323738,205.416651 C424.291106,249.66476 451.0213,310.47562 511.027298,341.241508 Z" id="Oval-6-Copy" fill="#3F3F3F"></path>
            <path d="M355.178596,356.228807 C375.666866,307.648197 361.567594,263.169375 323.686989,256.882577 C285.806385,250.595779 238.489063,284.881688 218.000793,333.462299 C197.512523,382.042909 211.611795,426.521731 249.4924,432.808529 C287.373004,439.095327 334.690326,404.809418 355.178596,356.228807 Z" id="Oval-7-Copy" fill="#3F3F3F"></path>
            <path d="M417.23402,428.902672 C439.198373,423.963024 456.462192,406.80094 455.793838,390.570086 C455.125485,374.339231 436.778052,365.185901 414.813699,370.12555 C392.849347,375.065199 375.585528,392.227283 376.253881,408.458137 C376.922235,424.688991 395.269668,433.842321 417.23402,428.902672 Z" id="Oval-8-Copy" fill="#3F3F3F"></path>
        </g>
    </g>
</svg>