<?xml version="1.0" encoding="UTF-8"?>
<svg width="1027px" height="679px" viewBox="0 0 1027 679" version="1.1" xmlns="http://www.w3.org/2000/svg" xmlns:xlink="http://www.w3.org/1999/xlink">
    <!-- Generator: Sketch 47.1 (45422) - http://www.bohemiancoding.com/sketch -->
    <title>Group 4</title>
    <desc>Created with Sketch.</desc>
    <defs></defs>
    <g id="Page-1" stroke="none" stroke-width="1" fill="none" fill-rule="evenodd">
        <g id="Group-4">
            <g id="Group-3">
                <g id="Group-Copy">
                    <polygon id="Rectangle" fill="#FFFFFF" points="307.564792 116 810.951582 116 767 502 166 502"></polygon>
                    <path d="M44.4328483,334.940744 C66.9151733,332.976413 87.527815,331.996169 106.270773,332.000011 C126.598783,332.004178 150.938558,333.159777 179.290097,335.466808 C197.398833,336.940356 208.038832,352.343949 203.733824,370.854141 L201.850769,378.95069 C197.565831,397.374587 179.898775,412.736542 161.174861,414.319428 C127.22177,417.189761 104.371328,418.624927 92.623533,418.624927 C80.8757382,418.624927 58.6928633,417.189761 26.0749083,414.319428 C8.08727338,412.736542 -2.43416907,397.374587 1.85076893,378.95069 L3.86261036,370.300399 C8.13827139,351.916393 25.7417054,336.573831 44.4328483,334.940744 Z" id="Rectangle-2-Copy" fill="#3F3F3F"></path>
                    <path d="M910.083415,278.943044 C932.832959,271.322658 958.345396,263.835087 986.620725,256.480332 C1005.13168,251.665409 1021.2752,260.663406 1024.14381,277.39476 L1025.91444,287.722058 C1028.8415,304.794319 1017.00314,324.306545 998.650808,332.658536 C973.2762,344.206306 951.113061,354.308071 932.16139,362.963829 C911.038524,372.611233 883.09563,380.83591 848.332706,387.63786 C831.604842,390.910949 817.325897,382.891259 813.706927,368.190485 L810.614023,355.626666 C806.385193,338.44855 817.974487,317.84142 836.877819,308.926545 C863.52755,296.358442 887.929416,286.363942 910.083415,278.943044 Z" id="Rectangle-2-Copy-2" fill="#3F3F3F"></path>
                    <path d="M426.992251,273 C449.359784,273 471.70941,254.867532 476.911539,232.5 C482.113668,210.132468 468.198359,192 445.830827,192 C423.463294,192 401.113668,210.132468 395.911539,232.5 C390.70941,254.867532 404.624719,273 426.992251,273 Z" id="Oval-4-Copy" fill="#3F3F3F"></path>
                    <path d="M626.992251,273 C649.359784,273 671.70941,254.867532 676.911539,232.5 C682.113668,210.132468 668.198359,192 645.830827,192 C623.463294,192 601.113668,210.132468 595.911539,232.5 C590.70941,254.867532 604.624719,273 626.992251,273 Z" id="Oval-4-Copy-2" fill="#3F3F3F"></path>
                    <path d="M509.571523,366.497352 C531.061679,359.185519 546.047869,353.069382 554.530094,348.14894 C561.286367,344.229703 574.751914,334.78341 594.926734,319.810061 C600.392512,315.753473 602.387517,308.798897 599.382704,304.276582 C598.059383,302.284953 595.90412,301.012715 593.320386,300.698035 C574.940404,298.459483 551.575255,297.235263 523.224937,297.025374 C493.423291,296.804739 468.534958,298.022987 448.559939,300.680115 C442.349097,301.506297 436.849208,307.055164 436.275593,313.073856 C436.047674,315.465306 436.637831,317.682378 437.955077,319.383263 C446.429647,330.325994 455.973219,339.914553 466.585793,348.14894 C480.534862,358.972143 492.983869,365.271564 503.932815,367.047202 C505.719209,367.336912 507.660299,367.147628 509.571523,366.497352 Z" id="Triangle-Copy" fill="#F19999"></path>
                    <path d="M902.221706,502.199054 L750.596664,502.199054 C754.374325,491.662457 757.552395,480.934726 760.083114,470.053423 C771.597769,420.543996 768.23209,374.213815 752.838934,334.601157 C768.802546,315.70957 780.317129,294.282128 785.598741,271.57284 C803.315161,195.39776 744.191119,133.645656 653.541498,133.645656 C619.054531,133.645656 584.973056,142.583438 555.004527,157.852876 C532.138573,142.583437 502.214509,133.645656 467.727545,133.645656 C377.077923,133.645656 289.22989,195.39776 271.51347,271.57284 C265.764285,296.292545 268.107002,319.493397 276.99305,339.557989 C245.289309,378.057448 221.937346,422.594776 210.899651,470.053423 C208.368932,480.934726 206.556997,491.662457 205.43356,502.199054 L57.1862801,502.199054 C85.2409057,403.801121 124.511254,329.590919 174.965293,261.599527 C196.285507,232.868605 210.899651,204.939327 234.976516,173.328071 C262.14614,133.645656 301.879661,100.85773 320.066418,87.337135 C373.069771,47.9328096 426.558986,8.54694911 538.344145,1.28302489 C631.001805,-4.73797316 704.778632,15.7402872 735.06516,31.4745574 C793.131038,64.0351305 834.034201,122.258346 843.665779,143.426787 C855.146701,168.659744 877.285205,215.316546 885.86789,251.202446 C902.499923,320.744257 910.756114,403.736971 902.221706,502.199054 Z" id="Combined-Shape-Copy-4" fill="#3F3F3F"></path>
                </g>
            </g>
            <path d="M103.61475,598.496 L109.704348,573.584 L143.256348,573.584 C151.176348,573.584 155.461148,573.728 159.640348,574.304 L165.025946,552.272 C160.133146,552.848 155.022746,553.136 146.670746,553.136 L114.702746,553.136 L115.477146,549.968 C116.533146,545.648 117.310745,543.056 118.622745,539.456 L95.0067451,539.456 C94.5939454,542.912 94.2483456,545.504 93.2275459,549.68 L92.3827462,553.136 L62.7187462,553.136 C54.6547462,553.136 49.9731461,552.848 45.0739461,552.272 L39.6883477,574.304 C44.4371477,573.728 48.6483477,573.584 56.4243477,573.584 L87.3843477,573.584 L81.2947495,598.496 L57.3907495,598.496 L73.9283492,594.464 C73.5315487,587.84 72.5267483,581.936 70.3219477,573.872 L47.9603481,579.344 C50.3443487,587.264 50.8659489,590.432 51.4867495,598.496 L45.5827495,598.496 C36.2227495,598.496 32.5139495,598.352 27.9027495,597.776 L22.5523511,619.664 C28.0211511,619.088 32.9875511,618.8 40.9075511,618.8 L63.8035511,618.8 C55.7107516,626.576 48.4339521,632.192 38.8531525,637.808 C29.7747529,643.136 20.3315532,647.6 11.3139535,650.912 C15.710754,658.256 17.6467544,663.296 19.710755,671.936 C43.5155542,660.56 58.3955534,649.76 73.0643521,633.344 C71.5443525,638.384 70.6291528,642.128 69.854753,645.296 L66.2995541,659.84 C64.7859546,666.032 63.4419549,670.352 61.5251553,675.248 L85.8611553,675.248 C86.5139549,669.632 87.3171545,665.168 88.6195541,659.84 L92.280353,644.864 C93.2275527,640.4 93.7523525,637.664 93.9283524,636.944 C94.2067523,635.216 94.2771523,634.928 94.6643521,633.344 C98.5267528,641.696 101.867553,646.88 107.880354,653.504 C114.581154,660.848 120.837155,665.888 132.033955,672.512 C138.785954,663.152 142.648354,658.544 150.417953,650.912 C130.501153,642.848 118.568352,633.344 110.459551,618.8 L136.235551,618.8 C144.011551,618.8 149.413151,619.088 154.456351,619.664 L159.806749,597.776 C155.48995,598.352 151.27875,598.496 142.35075,598.496 L133.56675,598.496 C138.465949,592.592 142.859549,586.4 147.569948,578.912 L126.769948,573.872 C121.566748,583.376 115.745949,591.872 110.09475,598.496 L103.61475,598.496 Z M257.649768,650.048 L264.724966,621.104 C246.948968,641.984 225.300969,659.264 201.42897,671.504 C199.800169,663.44 197.467369,658.256 192.136168,651.2 C206.216168,645.44 215.438568,640.112 226.801767,631.328 C234.580967,625.424 241.099366,619.376 247.969766,611.888 L236.737766,611.888 C234.916966,614.624 233.560166,616.64 230.452966,621.104 L214.401766,615.488 L209.966567,633.632 C208.734568,638.672 208.382568,640.112 208.142568,642.272 L207.422568,642.272 C205.873768,642.128 203.892968,641.984 201.588968,641.984 L182.580968,641.984 L179.342569,655.232 L159.902569,655.232 C161.707368,649.616 163.544168,643.28 165.339367,635.936 L182.974562,563.792 C184.452961,557.744 185.400161,553.28 186.203361,548.816 C189.121761,549.248 190.958561,549.392 194.990561,549.392 L220.478561,549.392 C225.086561,549.392 227.857761,549.248 230.987361,548.816 C229.924961,551.984 229.361761,554.288 227.038562,563.792 L216.161765,608.288 C224.091364,597.056 230.043364,586.256 237.649762,568.688 L257.723363,572.576 C252.920163,582.8 251.211364,586.256 248.433764,591.728 L271.905764,591.728 L278.488162,564.8 L244.792162,564.8 C237.448162,564.8 235.396962,564.944 231.403362,565.376 L236.71856,543.632 C241.18576,544.208 245.867361,544.496 252.491361,544.496 L302.171361,544.496 C309.371361,544.496 313.90576,544.208 318.79856,543.632 L313.448162,565.52 C309.556962,564.944 306.280162,564.8 300.232162,564.8 L299.080162,564.8 L292.497764,591.728 C300.993764,591.728 306.104164,591.44 309.809764,591.008 L304.529766,612.608 C300.350566,612.032 296.209766,611.888 287.569766,611.888 L276.552169,656.96 C274.827369,664.016 272.33137,668.336 268.20657,671.072 C264.72817,673.52 259.62097,674.384 249.68497,674.384 C245.22097,674.384 240.93617,674.24 234.27377,673.808 C235.70097,665.024 235.675369,660.416 234.296169,651.92 C241.428969,652.784 248.056169,653.36 252.520169,653.36 C255.976169,653.36 257.016169,652.64 257.649768,650.048 Z M200.392162,569.12 L187.297766,622.688 L194.785766,622.688 L207.880162,569.12 L200.392162,569.12 Z M339.835182,624.992 L310.747182,624.992 L303.671984,653.936 L320.231984,653.936 C317.902384,662.288 312.452785,666.32 301.374385,668.048 L305.035186,678.992 C319.204785,676.4 329.521585,667.184 332.759984,653.936 L339.835182,624.992 Z M576.241396,618.8 L555.361396,618.8 C557.854197,626.864 561.345397,633.2 566.487798,638.672 C572.570998,645.008 577.630198,648.464 586.938999,652.208 C579.857399,660.56 575.9278,666.032 570.0046,675.536 C559.8574,669.92 554.7214,665.6 548.631799,658.112 C543.482999,651.488 540.062198,644.864 537.854197,636.224 C526.036599,653.936 512.171,665.888 491.3486,676.256 C489.5086,669.056 487.754999,664.448 484.775799,659.552 C482.7694,667.76 482.3502,670.064 481.659,675.248 L459.195,675.248 C461.003,670.208 463.015799,663.152 464.916599,655.376 L489.310191,555.584 C491.105391,548.24 491.841391,544.64 492.35339,539.6 L514.81739,539.6 C513.009391,544.64 512.090991,547.808 510.190191,555.584 L507.022192,568.544 L515.210992,565.088 C516.174192,569.984 516.286192,570.704 517.402993,577.328 L522.436591,556.736 C526.362991,557.168 533.889391,557.6 539.361391,557.6 L543.105391,557.6 L544.689391,551.12 C545.780591,546.656 546.30219,543.344 546.78539,539.6 L570.11339,539.6 C568.58699,543.488 567.774191,546.224 566.647791,550.832 L564.993391,557.6 L586.161391,557.6 C590.337391,557.6 594.404591,557.456 598.686191,557.024 C597.303792,560.912 596.138992,565.088 595.082992,569.408 L588.113395,597.92 C592.721395,597.92 594.772594,597.776 598.766194,597.344 L593.310196,619.664 C588.122996,619.088 582.001396,618.8 576.241396,618.8 Z M537.783793,578.192 L533.895793,578.192 C528.567793,578.192 521.441393,578.48 517.626993,578.768 C518.228593,583.376 518.378994,584.528 518.724594,588.416 L505.687794,594.032 C505.722994,587.408 505.591793,583.232 504.874993,577.328 L485.831799,655.232 C503.428598,647.456 516.500597,635.216 524.833396,618.8 L517.777396,618.8 C510.865396,618.8 503.882996,619.088 499.025396,619.52 L504.410994,597.488 C508.625395,597.92 514.062195,598.064 522.846195,598.064 L532.206195,598.064 L537.783793,578.192 Z M570.903793,578.192 L559.959793,578.192 C557.527794,587.552 556.362994,591.728 554.382195,598.064 L566.046195,598.064 L570.903793,578.192 Z M469.710195,611.024 C475.188595,599.216 478.161394,590 483.198192,569.984 L471.486192,567.824 L470.183793,573.152 C467.402994,584.528 463.610994,595.328 458.698995,605.408 L469.710195,611.024 Z M645.719609,593.888 L630.15481,611.024 C621.71961,602.528 616.80121,598.496 607.406009,592.16 L623.838008,575.6 C633.265208,581.216 638.289209,584.816 646.177209,592.016 L649.626808,577.904 C654.526008,578.48 659.495608,578.768 666.551608,578.768 L684.839608,578.768 L687.726007,566.96 C678.551607,567.968 672.721207,568.256 660.916407,568.832 C661.124407,560.912 660.526006,556.88 658.289206,549.536 C679.166006,548.96 699.242806,546.944 717.044405,543.632 C729.092405,541.472 732.471605,540.608 738.721205,538.016 L748.263607,557.888 C747.041207,558.176 747.041207,558.176 745.242807,558.464 C736.039607,560.768 725.537207,562.496 710.644407,564.512 L707.159608,578.768 L729.191608,578.768 C736.391608,578.768 741.646008,578.48 746.682808,577.904 L741.26201,600.08 C737.08281,599.504 731.82521,599.216 724.33721,599.216 L702.16121,599.216 L698.922811,612.464 L719.370811,612.464 C724.842811,612.464 728.478011,612.32 731.284411,612.032 C729.831611,616.208 728.737211,620.096 727.575612,624.848 L719.268414,658.832 C717.790015,664.88 716.810815,670.064 716.186815,674.384 L693.434815,674.384 L694.913215,668.336 L654.161215,668.336 L652.682815,674.384 L630.650815,674.384 C632.135615,669.488 633.866814,663.584 635.063614,658.688 L643.511611,624.128 C644.567611,619.808 645.479611,615.488 646.036411,612.032 C649.422011,612.32 652.698811,612.464 658.170811,612.464 L676.602811,612.464 L679.84121,599.216 L661.69721,599.216 C654.78521,599.216 649.24281,599.504 644.20601,600.08 L645.719609,593.888 Z M663.175612,632.048 L659.162813,648.464 L699.914813,648.464 L703.927612,632.048 L663.175612,632.048 Z M620.266806,554.864 L637.710005,538.88 C647.831606,546.368 651.521206,549.536 659.342006,557.6 L641.870008,574.88 C634.334007,566.24 629.738807,562.064 620.266806,554.864 Z M622.900411,614.192 L637.729212,626.576 C630.030013,640.4 625.214013,648.32 617.572414,659.552 C616.929214,660.416 613.428415,665.312 606.817215,674.096 L591.572414,658.112 C600.167613,650.048 610.490812,635.504 622.900411,614.192 Z M838.948228,650.048 L846.023426,621.104 C828.247428,641.984 806.599429,659.264 782.72743,671.504 C781.098629,663.44 778.765829,658.256 773.434628,651.2 C787.514628,645.44 796.737028,640.112 808.100227,631.328 C815.879427,625.424 822.397826,619.376 829.268226,611.888 L818.036226,611.888 C816.215426,614.624 814.858626,616.64 811.751426,621.104 L795.700226,615.488 L791.265027,633.632 C790.033028,638.672 789.681028,640.112 789.441028,642.272 L788.721028,642.272 C787.172228,642.128 785.191428,641.984 782.887428,641.984 L763.879428,641.984 L760.641029,655.232 L741.201029,655.232 C743.005828,649.616 744.842628,643.28 746.637827,635.936 L764.273022,563.792 C765.751422,557.744 766.698621,553.28 767.501821,548.816 C770.420221,549.248 772.257021,549.392 776.289021,549.392 L801.777021,549.392 C806.385021,549.392 809.156221,549.248 812.285821,548.816 C811.223421,551.984 810.660221,554.288 808.337022,563.792 L797.460225,608.288 C805.389824,597.056 811.341824,586.256 818.948222,568.688 L839.021823,572.576 C834.218623,582.8 832.509824,586.256 829.732224,591.728 L853.204224,591.728 L859.786622,564.8 L826.090622,564.8 C818.746622,564.8 816.695422,564.944 812.701822,565.376 L818.01702,543.632 C822.48422,544.208 827.165821,544.496 833.789821,544.496 L883.469821,544.496 C890.669821,544.496 895.20422,544.208 900.09702,543.632 L894.746622,565.52 C890.855422,564.944 887.578622,564.8 881.530622,564.8 L880.378622,564.8 L873.796224,591.728 C882.292224,591.728 887.402624,591.44 891.108224,591.008 L885.828226,612.608 C881.649026,612.032 877.508226,611.888 868.868226,611.888 L857.850629,656.96 C856.125829,664.016 853.62983,668.336 849.50503,671.072 C846.02663,673.52 840.91943,674.384 830.98343,674.384 C826.51943,674.384 822.23463,674.24 815.57223,673.808 C816.99943,665.024 816.973829,660.416 815.594629,651.92 C822.727429,652.784 829.354629,653.36 833.818629,653.36 C837.274629,653.36 838.314629,652.64 838.948228,650.048 Z M781.690622,569.12 L768.596226,622.688 L776.084226,622.688 L789.178622,569.12 L781.690622,569.12 Z" id="来呀，快活呀" fill="#989898"></path>
        </g>
    </g>
</svg>