<?xml version="1.0" encoding="UTF-8"?>
<svg width="1027px" height="707px" viewBox="0 0 1027 707" version="1.1" xmlns="http://www.w3.org/2000/svg" xmlns:xlink="http://www.w3.org/1999/xlink">
    <!-- Generator: Sketch 47.1 (45422) - http://www.bohemiancoding.com/sketch -->
    <title>Group 5 Copy</title>
    <desc>Created with Sketch.</desc>
    <defs></defs>
    <g id="Page-1" stroke="none" stroke-width="1" fill="none" fill-rule="evenodd">
        <g id="Group-5-Copy">
            <g id="Group-3-Copy">
                <g id="Group-Copy">
                    <path d="M44.4328483,334.940744 C66.9151733,332.976413 87.527815,331.996169 106.270773,332.000011 C126.598783,332.004178 150.938558,333.159777 179.290097,335.466808 C197.398833,336.940356 208.038832,352.343949 203.733824,370.854141 L201.850769,378.95069 C197.565831,397.374587 179.898775,412.736542 161.174861,414.319428 C127.22177,417.189761 104.371328,418.624927 92.623533,418.624927 C80.8757382,418.624927 58.6928633,417.189761 26.0749083,414.319428 C8.08727338,412.736542 -2.43416907,397.374587 1.85076893,378.95069 L3.86261036,370.300399 C8.13827139,351.916393 25.7417054,336.573831 44.4328483,334.940744 Z" id="Rectangle-2-Copy" fill="#000000"></path>
                    <path d="M910.083415,278.943044 C932.832959,271.322658 958.345396,263.835087 986.620725,256.480332 C1005.13168,251.665409 1021.2752,260.663406 1024.14381,277.39476 L1025.91444,287.722058 C1028.8415,304.794319 1017.00314,324.306545 998.650808,332.658536 C973.2762,344.206306 951.113061,354.308071 932.16139,362.963829 C911.038524,372.611233 883.09563,380.83591 848.332706,387.63786 C831.604842,390.910949 817.325897,382.891259 813.706927,368.190485 L810.614023,355.626666 C806.385193,338.44855 817.974487,317.84142 836.877819,308.926545 C863.52755,296.358442 887.929416,286.363942 910.083415,278.943044 Z" id="Rectangle-2-Copy-2" fill="#000000"></path>
                    <path d="M426.992251,273 C449.359784,273 471.70941,254.867532 476.911539,232.5 C482.113668,210.132468 468.198359,192 445.830827,192 C423.463294,192 401.113668,210.132468 395.911539,232.5 C390.70941,254.867532 404.624719,273 426.992251,273 Z" id="Oval-4-Copy" fill="#000000"></path>
                    <path d="M626.992251,273 C649.359784,273 671.70941,254.867532 676.911539,232.5 C682.113668,210.132468 668.198359,192 645.830827,192 C623.463294,192 601.113668,210.132468 595.911539,232.5 C590.70941,254.867532 604.624719,273 626.992251,273 Z" id="Oval-4-Copy-2" fill="#000000"></path>
                    <path d="M509.571523,366.497352 C531.061679,359.185519 546.047869,353.069382 554.530094,348.14894 C561.286367,344.229703 574.751914,334.78341 594.926734,319.810061 C600.392512,315.753473 602.387517,308.798897 599.382704,304.276582 C598.059383,302.284953 595.90412,301.012715 593.320386,300.698035 C574.940404,298.459483 551.575255,297.235263 523.224937,297.025374 C493.423291,296.804739 468.534958,298.022987 448.559939,300.680115 C442.349097,301.506297 436.849208,307.055164 436.275593,313.073856 C436.047674,315.465306 436.637831,317.682378 437.955077,319.383263 C446.429647,330.325994 455.973219,339.914553 466.585793,348.14894 C480.534862,358.972143 492.983869,365.271564 503.932815,367.047202 C505.719209,367.336912 507.660299,367.147628 509.571523,366.497352 Z" id="Triangle-Copy" fill="#FF3111"></path>
                    <path d="M902.221706,502.199054 L750.596664,502.199054 C754.374325,491.662457 757.552395,480.934726 760.083114,470.053423 C771.597769,420.543996 768.23209,374.213815 752.838934,334.601157 C768.802546,315.70957 780.317129,294.282128 785.598741,271.57284 C803.315161,195.39776 744.191119,133.645656 653.541498,133.645656 C619.054531,133.645656 584.973056,142.583438 555.004527,157.852876 C532.138573,142.583437 502.214509,133.645656 467.727545,133.645656 C377.077923,133.645656 289.22989,195.39776 271.51347,271.57284 C265.764285,296.292545 268.107002,319.493397 276.99305,339.557989 C245.289309,378.057448 221.937346,422.594776 210.899651,470.053423 C208.368932,480.934726 206.556997,491.662457 205.43356,502.199054 L57.1862801,502.199054 C85.2409057,403.801121 124.511254,329.590919 174.965293,261.599527 C196.285507,232.868605 210.899651,204.939327 234.976516,173.328071 C262.14614,133.645656 301.879661,100.85773 320.066418,87.337135 C373.069771,47.9328096 426.558986,8.54694911 538.344145,1.28302489 C631.001805,-4.73797316 704.778632,15.7402872 735.06516,31.4745574 C793.131038,64.0351305 834.034201,122.258346 843.665779,143.426787 C855.146701,168.659744 877.285205,215.316546 885.86789,251.202446 C902.499923,320.744257 910.756114,403.736971 902.221706,502.199054 Z" id="Combined-Shape-Copy-4" fill="#000000"></path>
                </g>
            </g>
            <path d="M25.5,501.5 L933.555064,501.5" id="Line" stroke="#464646" stroke-width="11" stroke-linecap="square"></path>
            <path d="M25.5,701.5 L933.555064,701.5" id="Line" stroke="#464646" stroke-width="11" stroke-linecap="square"></path>
            <path d="M191.69,572.298597 C187.909981,570.663353 184.220018,569.203337 180.62,567.918503 C177.019982,566.633669 173.330019,565.494856 169.55,564.50203 C165.769981,563.509204 161.675022,562.574793 157.265,561.69877 C152.854978,560.822747 147.950027,559.917537 142.55,558.983112 C136.069968,561.085568 129.81503,564.239203 123.785,568.444114 C117.75497,572.649025 112.445023,577.204277 107.855,582.110006 C103.264977,587.015735 99.575014,591.979792 96.785,597.002324 C93.9949861,602.024857 92.6,606.404906 92.6,610.142605 C92.6,611.427439 93.5449906,612.975056 95.435,614.785504 C97.3250094,616.595952 99.7999847,618.347972 102.86,620.041616 C105.920015,621.735261 109.519979,623.195278 113.66,624.42171 C117.800021,625.648142 122.029978,626.261349 126.35,626.261349 C131.750027,626.261349 139.129953,625.239338 148.49,623.195284 C157.850047,621.15123 167.659949,618.435599 177.92,615.04831 L182.24,619.778811 C176.839973,621.881266 170.990032,623.95449 164.69,625.998544 C158.389969,628.042598 152.045032,629.882218 145.655,631.517462 C139.264968,633.152705 133.10003,634.46672 127.16,635.459546 C121.21997,636.452372 115.910023,636.948778 111.23,636.948778 C104.569967,636.948778 98.1800306,636.043567 92.06,634.23312 C85.9399694,632.422672 80.4950239,630.115846 75.725,627.312572 C70.9549762,624.509298 67.175014,621.355662 64.385,617.85157 C61.5949861,614.347477 60.2,610.901838 60.2,607.514549 C60.2,602.25841 62.4499775,596.243142 66.95,589.468563 C71.4500225,582.693985 78.0199568,576.328312 86.66,570.371355 C95.3000432,564.414398 105.964937,559.391941 118.655,555.303834 C131.345063,551.215726 145.969917,549.171703 162.53,549.171703 C168.290029,549.171703 175.084961,550.193714 182.915,552.237768 C190.745039,554.281822 199.519951,557.406257 209.24,561.611168 L191.69,572.298597 Z M367.76375,598.403954 C367.76375,604.244108 365.423773,609.529368 360.74375,614.259893 C356.063727,618.990418 350.393783,623.020063 343.73375,626.348951 C337.073717,629.677839 330.188786,632.247468 323.07875,634.057916 C315.968715,635.868364 309.983774,636.773574 305.12375,636.773574 C298.463717,636.773574 286.043841,633.211133 267.86375,626.086146 C262.643724,629.123026 258.413766,631.429852 255.17375,633.006693 C251.933734,634.583535 249.143762,635.517946 246.80375,635.809953 C244.463738,636.101961 242.30376,635.839158 240.32375,635.021536 C238.34374,634.203915 236.093763,632.9191 233.57375,631.167054 C229.253728,628.246977 226.823753,626.086153 226.28375,624.684516 C225.743747,623.282879 226.193743,621.764461 227.63375,620.129218 C239.69381,606.696864 249.638711,594.02392 257.46875,582.110006 C265.298789,570.196092 270.473737,559.099966 272.99375,548.821295 L293.51375,554.252611 L322.94375,548.821295 C332.123796,555.595874 339.638721,561.43594 345.48875,566.341669 C351.338779,571.247399 355.883734,575.569048 359.12375,579.306746 C362.363766,583.044445 364.613744,586.431683 365.87375,589.468563 C367.133756,592.505443 367.76375,595.483877 367.76375,598.403954 Z M337.52375,599.980788 C337.52375,594.724649 334.238783,588.563379 327.66875,581.496793 C321.098717,574.430207 311.873809,566.692119 299.99375,558.282297 C296.393732,567.86015 291.488781,577.700661 285.27875,587.804128 C279.068719,597.907594 271.643793,607.572904 263.00375,616.800347 C269.303782,619.136409 275.873716,620.946829 282.71375,622.231663 C289.553784,623.516497 295.133728,624.158904 299.45375,624.158904 C303.953773,624.158904 308.453728,623.545697 312.95375,622.319265 C317.453773,621.092833 321.548732,619.399213 325.23875,617.238357 C328.928769,615.0775 331.898739,612.50787 334.14875,609.529392 C336.398761,606.550913 337.52375,603.368077 337.52375,599.980788 Z M513.5975,621.881256 C510.537485,625.151742 508.152509,627.896573 506.4425,630.115832 C504.732492,632.33509 502.977509,634.787918 501.1775,637.474389 C493.617462,636.539964 486.057538,635.839156 478.4975,635.371944 C470.937462,634.904732 463.017542,634.671129 454.7375,634.671129 C446.457459,634.671129 437.682546,634.904732 428.4125,635.371944 C419.142454,635.839156 409.017555,636.539964 398.0375,637.474389 L409.9175,624.158904 C415.317527,609.441716 421.122469,596.155565 427.3325,584.300053 C433.542531,572.44454 440.427462,562.487227 447.9875,554.427815 C451.94752,553.843799 455.547484,553.318193 458.7875,552.850981 C462.027516,552.383769 465.312483,551.887363 468.6425,551.361749 C471.972517,550.836135 475.392483,550.310529 478.9025,549.784916 C482.412518,549.259302 486.417478,548.646095 490.9175,547.945276 C484.617469,553.435021 479.217523,558.515879 474.7175,563.188002 C470.217478,567.860125 466.077519,572.736581 462.2975,577.817514 C458.517481,582.898448 454.872518,588.475712 451.3625,594.549472 C447.852483,600.623232 443.937522,607.806514 439.6175,616.099532 L419.9075,624.509312 C447.987641,620.421204 479.217328,619.545194 513.5975,621.881256 Z M694.53125,571.07217 C692.011238,573.641838 688.996268,576.357469 685.48625,579.219144 C681.976233,582.08082 677.611276,585.380457 672.39125,589.118156 C670.231239,590.753399 668.431257,593.410629 666.99125,597.089926 C665.551243,600.769223 664.83125,605.120073 664.83125,610.142605 C664.83125,615.515547 665.371245,620.129199 666.45125,623.983701 C667.531256,627.838202 668.971241,630.933437 670.77125,633.269499 L635.94125,637.474389 C634.681244,632.802266 634.231248,627.692208 634.59125,622.144061 C634.951252,616.595915 636.211239,611.193854 638.37125,605.937715 C635.131234,609.091398 630.721278,612.507837 625.14125,616.187134 C619.561222,619.866431 613.576282,623.28287 607.18625,626.436553 C600.796218,629.590236 594.496281,632.218266 588.28625,634.320721 C582.076219,636.423177 576.811272,637.474389 572.49125,637.474389 C568.35123,637.474389 564.25627,636.656779 560.20625,635.021536 C556.15623,633.386293 552.511266,631.429871 549.27125,629.152211 C546.031234,626.874551 543.42126,624.538524 541.44125,622.144061 C539.46124,619.749598 538.47125,617.734775 538.47125,616.099532 C538.47125,615.048304 538.876246,613.675889 539.68625,611.982244 C540.496254,610.2886 542.251237,607.397767 544.95125,603.309659 C548.731269,597.352702 551.926237,592.067442 554.53625,587.45372 C557.146263,582.839999 559.261242,578.605951 560.88125,574.751449 C562.501258,570.896947 563.671247,567.392908 564.39125,564.239224 C565.111254,561.085541 565.47125,558.048707 565.47125,555.12863 L600.03125,549.697314 C599.851249,554.48624 599.131257,559.275094 597.87125,564.064021 C596.611244,568.852947 594.676263,573.817003 592.06625,578.956339 C589.456237,584.095674 586.081271,589.468535 581.94125,595.075083 C577.80123,600.681631 572.76128,606.7553 566.82125,613.296272 C569.341263,615.86594 571.906237,618.026765 574.51625,619.778811 C577.126263,621.530857 580.50123,623.224476 584.64125,624.859719 C590.761281,623.107673 596.971219,620.742446 603.27125,617.763968 C609.571282,614.785489 615.646221,611.281449 621.49625,607.251743 C627.346279,603.222037 632.746225,598.754386 637.69625,593.848657 C642.646275,588.942928 646.741234,583.686868 649.98125,578.08032 C653.041266,572.824182 655.786238,568.531733 658.21625,565.202845 C660.646262,561.873957 662.85124,558.866323 664.83125,556.179852 C667.711265,552.442154 670.051241,550.281329 671.85125,549.697314 C673.651259,549.113298 676.081235,549.346901 679.14125,550.398129 C681.661263,551.332553 684.181238,552.442166 686.70125,553.727 C689.221263,555.011834 691.47124,556.47185 693.45125,558.107093 C696.511266,560.676761 698.04125,562.895986 698.04125,564.764836 C698.04125,566.633685 696.871262,568.736109 694.53125,571.07217 Z M874.925,592.447027 C868.624969,594.315876 862.55003,595.717492 856.7,596.651917 C850.849971,597.586341 844.775032,598.34555 838.475,598.929565 L853.595,603.484863 C850.534985,605.236909 847.925011,607.047329 845.765,608.916179 C843.604989,610.785028 841.805007,612.887452 840.365,615.223513 C838.924993,617.559575 837.710005,620.187605 836.72,623.107682 C835.729995,626.027759 834.965003,629.473398 834.425,633.444703 L804.185,637.649593 C805.085005,634.495909 806.209994,631.605077 807.56,628.977007 C808.910007,626.348938 810.934987,623.516506 813.635,620.479626 C807.51497,622.93249 802.070024,625.093315 797.3,626.962164 C792.529976,628.831013 788.075021,630.407831 783.935,631.692665 C779.79498,632.977499 775.925018,633.94111 772.325,634.583527 C768.724982,635.225944 765.125018,635.547148 761.525,635.547148 C756.844977,635.547148 752.210023,634.554336 747.62,632.568684 C743.029977,630.583032 738.935018,628.247005 735.335,625.560534 C731.734982,622.874063 728.765012,620.070832 726.425,617.150755 C724.084989,614.230678 722.915,611.77785 722.915,609.792197 C722.915,607.22253 723.679993,604.273296 725.21,600.944408 C726.740008,597.615521 728.629989,594.286683 730.88,590.957795 C733.130012,587.628907 735.649986,584.475272 738.44,581.496793 C741.230014,578.518315 743.884988,576.094687 746.405,574.225838 C757.565056,565.348804 769.17494,558.89553 781.235,554.865824 C793.295061,550.836118 807.33492,548.821295 823.355,548.821295 C827.495021,548.821295 831.769978,549.200899 836.18,549.960119 C840.590022,550.719339 844.954979,551.741351 849.275,553.026185 C853.595022,554.311019 857.77998,555.800236 861.83,557.49388 C865.880021,559.187525 869.614983,560.968745 873.035,562.837594 L851.975,572.4738 C845.494968,569.553723 838.745035,567.071695 831.725,565.027641 C824.704965,562.983587 816.155051,561.027165 806.075,559.158316 C801.394977,560.910362 796.445026,563.567592 791.225,567.130086 C786.004974,570.69258 781.010024,574.751426 776.24,579.306746 C771.469976,583.862066 767.195019,588.767722 763.415,594.023861 C759.634981,599.279999 756.75501,604.536059 754.775,609.792197 C755.315003,611.193834 756.349993,612.712252 757.88,614.347495 C759.410008,615.982738 761.254989,617.501155 763.415,618.902792 C765.575011,620.304429 767.824989,621.472442 770.165,622.406867 C772.505012,623.341292 774.754989,623.808497 776.915,623.808497 C779.795015,623.808497 783.844974,623.107689 789.065,621.706052 C794.285026,620.304415 799.594973,618.493994 804.995,616.274736 C810.395027,614.055477 815.299978,611.515049 819.71,608.653373 C824.120022,605.791698 826.954994,602.842464 828.215,599.805584 C817.414946,600.740009 808.280038,601.090413 800.81,600.856807 C793.339963,600.6232 788.255014,600.155995 785.555,599.455177 L799.595,587.541322 C810.035052,588.826156 821.869934,589.264161 835.1,588.85535 C848.330066,588.446539 862.504925,587.190925 877.625,585.08847 L874.925,592.447027 Z" id="CDLUG" fill="#646464"></path>
        </g>
    </g>
</svg>